<svg xmlns="http://www.w3.org/2000/svg" width="128" height="128" viewBox="0 0 128 128" role="img" aria-label="一颗丁子">
  <rect width="128" height="128" fill="#000"/>
  <g color="#fff" transform="translate(-5 -6.2) scale(1.08)">
    <g transform="translate(33.5 18) scale(2.8)">
      <path fill="currentColor" fill-rule="evenodd" d="M10.218 3.216a.75.75 0 0 0-1.436-.431l-3 10a.75.75 0 0 0 1.436.43zM4.53 4.97a.75.75 0 0 1 0 1.06L2.56 8l1.97 1.97a.75.75 0 0 1-1.06 1.06l-2.5-2.5a.75.75 0 0 1 0-1.06l2.5-2.5a.75.75 0 0 1 1.06 0m6.94 6.06a.75.75 0 0 1 0-1.06L13.44 8l-1.97-1.97a.75.75 0 0 1 1.06-1.06l2.5 2.5a.75.75 0 0 1 0 1.06l-2.5 2.5a.75.75 0 0 1-1.06 0" clip-rule="evenodd"/>
    </g>
    <g transform="translate(18 30.5) scale(3.6)">
      <path fill="currentColor" d="M6 15q-1.25 0-2.125-.875T3 12V8h13.025q.125-.825.675-1.475t1.35-.925l4.625-1.55l.625 1.9l-4.625 1.55q-.3.1-.488.363T18 8.45V12q0 1.25-.875 2.125T15 15z"/>
      <path fill="currentColor" d="M9 21v-3H2v-2h7q.825 0 1.413.588T11 18v3z"/>
      <path fill="currentColor" d="M13 21v-3q0-.825.588-1.412T15 16h7v2h-7v3z"/>
    </g>
  </g>
</svg>
